REM DIRINDEX 1\2,1\3,1\4,1\6,1\5\7,1\5\8
REM DIRNAME folder01,folder02,folder03,folder04,folder05,folder06,folder07,folder08
TITLE ""
FILE "DB4500_5th_3B_10.mp3" MP3
  TRACK 01 AUDIO
    TITLE "2:cjc114_1967"
    INDEX 01 00:00:00
  TRACK 02 AUDIO
    TITLE "0:"
    INDEX 01 00:01:24
  TRACK 03 AUDIO
    TITLE "3:cjc114_1968"
    INDEX 01 00:01:54
  TRACK 04 AUDIO
    TITLE "0:"
    INDEX 01 00:03:14
  TRACK 05 AUDIO
    TITLE "4:cjc114_1969"
    INDEX 01 00:03:41
  TRACK 06 AUDIO
    TITLE "0:"
    INDEX 01 00:06:57
  TRACK 07 AUDIO
    TITLE "2:cjc114_1970"
    INDEX 01 00:07:37
  TRACK 08 AUDIO
    TITLE "0:"
    INDEX 01 00:08:58
  TRACK 09 AUDIO
    TITLE "3:cjc114_1971"
    INDEX 01 00:09:12
  TRACK 10 AUDIO
    TITLE "0:"
    INDEX 01 00:10:37
  TRACK 11 AUDIO
    TITLE "4:cjc114_1972"
    INDEX 01 00:10:65
  TRACK 12 AUDIO
    TITLE "0:"
    INDEX 01 00:14:00
  TRACK 13 AUDIO
    TITLE "2:cjc114_1973"
    INDEX 01 00:14:54
  TRACK 14 AUDIO
    TITLE "0:"
    INDEX 01 00:15:64
  TRACK 15 AUDIO
    TITLE "3:cjc114_1974"
    INDEX 01 00:16:16
  TRACK 16 AUDIO
    TITLE "0:"
    INDEX 01 00:17:25
  TRACK 17 AUDIO
    TITLE "4:cjc114_1975"
    INDEX 01 00:17:53
  TRACK 18 AUDIO
    TITLE "0:"
    INDEX 01 00:21:06
  TRACK 19 AUDIO
    TITLE "2:cjc114_1976"
    INDEX 01 00:21:66
  TRACK 20 AUDIO
    TITLE "0:"
    INDEX 01 00:23:04
  TRACK 21 AUDIO
    TITLE "3:cjc114_1977"
    INDEX 01 00:23:34
  TRACK 22 AUDIO
    TITLE "0:"
    INDEX 01 00:24:49
  TRACK 23 AUDIO
    TITLE "4:cjc114_1978"
    INDEX 01 00:25:01
  TRACK 24 AUDIO
    TITLE "0:"
    INDEX 01 00:29:11
  TRACK 25 AUDIO
    TITLE "2:cjc114_1979"
    INDEX 01 00:29:64
  TRACK 26 AUDIO
    TITLE "0:"
    INDEX 01 00:31:08
  TRACK 27 AUDIO
    TITLE "3:cjc114_1980"
    INDEX 01 00:31:39
  TRACK 28 AUDIO
    TITLE "0:"
    INDEX 01 00:32:54
  TRACK 29 AUDIO
    TITLE "4:cjc114_1981"
    INDEX 01 00:33:09
  TRACK 30 AUDIO
    TITLE "0:"
    INDEX 01 00:35:41
  TRACK 31 AUDIO
    TITLE "2:cjc114_1982"
    INDEX 01 00:36:19
  TRACK 32 AUDIO
    TITLE "0:"
    INDEX 01 00:37:30
  TRACK 33 AUDIO
    TITLE "3:cjc114_1983"
    INDEX 01 00:37:59
  TRACK 34 AUDIO
    TITLE "0:"
    INDEX 01 00:39:07
  TRACK 35 AUDIO
    TITLE "4:cjc114_1984"
    INDEX 01 00:39:37
  TRACK 36 AUDIO
    TITLE "0:"
    INDEX 01 00:42:70
  TRACK 37 AUDIO
    TITLE "2:cjc114_1985"
    INDEX 01 00:43:48
  TRACK 38 AUDIO
    TITLE "0:"
    INDEX 01 00:44:71
  TRACK 39 AUDIO
    TITLE "3:cjc114_1986"
    INDEX 01 00:45:24
  TRACK 40 AUDIO
    TITLE "0:"
    INDEX 01 00:46:62
  TRACK 41 AUDIO
    TITLE "4:cjc114_1987"
    INDEX 01 00:47:17
  TRACK 42 AUDIO
    TITLE "0:"
    INDEX 01 00:49:63
  TRACK 43 AUDIO
    TITLE "2:cjc114_1988"
    INDEX 01 00:50:41
  TRACK 44 AUDIO
    TITLE "0:"
    INDEX 01 00:51:63
  TRACK 45 AUDIO
    TITLE "3:cjc114_1989"
    INDEX 01 00:52:16
  TRACK 46 AUDIO
    TITLE "0:"
    INDEX 01 00:53:47
  TRACK 47 AUDIO
    TITLE "4:cjc114_1990"
    INDEX 01 00:53:74
  TRACK 48 AUDIO
    TITLE "0:"
    INDEX 01 00:57:37
  TRACK 49 AUDIO
    TITLE "2:cjc114_1991"
    INDEX 01 00:58:15
  TRACK 50 AUDIO
    TITLE "0:"
    INDEX 01 00:59:10
  TRACK 51 AUDIO
    TITLE "3:cjc114_1992"
    INDEX 01 00:59:39
  TRACK 52 AUDIO
    TITLE "0:"
    INDEX 01 01:01:25
  TRACK 53 AUDIO
    TITLE "4:cjc114_1993"
    INDEX 01 01:01:54
  TRACK 54 AUDIO
    TITLE "0:"
    INDEX 01 01:04:27
  TRACK 55 AUDIO
    TITLE "2:cjc114_1994"
    INDEX 01 01:05:07
  TRACK 56 AUDIO
    TITLE "0:"
    INDEX 01 01:06:06
  TRACK 57 AUDIO
    TITLE "3:cjc114_1995"
    INDEX 01 01:06:34
  TRACK 58 AUDIO
    TITLE "0:"
    INDEX 01 01:07:70
  TRACK 59 AUDIO
    TITLE "4:cjc114_1996"
    INDEX 01 01:08:25
  TRACK 60 AUDIO
    TITLE "0:"
    INDEX 01 01:11:19
  TRACK 61 AUDIO
    TITLE "2:cjc114_1997"
    INDEX 01 01:11:74
  TRACK 62 AUDIO
    TITLE "0:"
    INDEX 01 01:13:10
  TRACK 63 AUDIO
    TITLE "3:cjc114_1998"
    INDEX 01 01:13:40
  TRACK 64 AUDIO
    TITLE "0:"
    INDEX 01 01:14:68
  TRACK 65 AUDIO
    TITLE "4:cjc114_1999"
    INDEX 01 01:15:25
  TRACK 66 AUDIO
    TITLE "0:"
    INDEX 01 01:19:64
